<svg viewBox="0 0 242 86" xmlns="http://www.w3.org/2000/svg" profile="tiny"><rect x="2" y="2" width="10" height="10" fill="#fdd8d8" rx="2" ry="2" opacity="0"><animate attributeName="opacity" from="0" to="1" dur="0.3s" begin="0s" fill="freeze"></animate></rect><rect x="2" y="14" width="10" height="10" fill="#a80b0b" rx="2" ry="2" opacity="0"><animate attributeName="opacity" from="0" to="1" dur="0.3s" begin="0.01s" fill="freeze"></animate></rect><rect x="2" y="26" width="10" height="10" fill="#f01111" rx="2" ry="2" opacity="0"><animate attributeName="opacity" from="0" to="1" dur="0.3s" begin="0.02s" fill="freeze"></animate></rect><rect x="2" y="38" width="10" height="10" fill="#a80b0b" rx="2" ry="2" opacity="0"><animate attributeName="opacity" from="0" to="1" dur="0.3s" begin="0.03s" fill="freeze"></animate></rect><rect x="2" y="50" width="10" height="10" fill="#a80b0b" rx="2" ry="2" opacity="0"><animate attributeName="opacity" from="0" to="1" dur="0.3s" begin="0.04s" fill="freeze"></animate></rect><rect x="2" y="62" width="10" height="10" fill="#f99b9b" rx="2" ry="2" opacity="0"><animate attributeName="opacity" from="0" to="1" dur="0.3s" begin="0.05s" fill="freeze"></animate></rect><rect x="2" y="74" width="10" height="10" fill="#fbb3b3" rx="2" ry="2" opacity="0"><animate attributeName="opacity" from="0" to="1" dur="0.3s" begin="0.06s" fill="freeze"></animate></rect><rect x="14" y="2" width="10" height="10" fill="#fdd8d8" rx="2" ry="2" opacity="0"><animate attributeName="opacity" from="0" to="1" dur="0.3s" begin="0.07s" fill="freeze"></animate></rect><rect x="14" y="14" width="10" height="10" fill="#fbb3b3" rx="2" ry="2" opacity="0"><animate attributeName="opacity" from="0" to="1" dur="0.3s" begin="0.08s" fill="freeze"></animate></rect><rect x="14" y="26" width="10" height="10" fill="#fdd8d8" rx="2" ry="2" opacity="0"><animate attributeName="opacity" from="0" to="1" dur="0.3s" begin="0.09s" fill="freeze"></animate></rect><rect x="14" y="38" width="10" height="10" fill="#f99b9b" rx="2" ry="2" opacity="0"><animate attributeName="opacity" from="0" to="1" dur="0.3s" begin="0.1s" fill="freeze"></animate></rect><rect x="14" y="50" width="10" height="10" fill="#a80b0b" rx="2" ry="2" opacity="0"><animate attributeName="opacity" from="0" to="1" dur="0.3s" begin="0.11s" fill="freeze"></animate></rect><rect x="14" y="62" width="10" height="10" fill="#a80b0b" rx="2" ry="2" opacity="0"><animate attributeName="opacity" from="0" to="1" dur="0.3s" begin="0.12s" fill="freeze"></animate></rect><rect x="14" y="74" width="10" height="10" fill="#f45555" rx="2" ry="2" opacity="0"><animate attributeName="opacity" from="0" to="1" dur="0.3s" begin="0.13s" fill="freeze"></animate></rect><rect x="26" y="2" width="10" height="10" fill="#fdd8d8" rx="2" ry="2" opacity="0"><animate attributeName="opacity" from="0" to="1" dur="0.3s" begin="0.14s" fill="freeze"></animate></rect><rect x="26" y="14" width="10" height="10" fill="#f99b9b" rx="2" ry="2" opacity="0"><animate attributeName="opacity" from="0" to="1" dur="0.3s" begin="0.15s" fill="freeze"></animate></rect><rect x="26" y="26" width="10" height="10" fill="#a80b0b" rx="2" ry="2" opacity="0"><animate attributeName="opacity" from="0" to="1" dur="0.3s" begin="0.16s" fill="freeze"></animate></rect><rect x="26" y="38" width="10" height="10" fill="#a80b0b" rx="2" ry="2" opacity="0"><animate attributeName="opacity" from="0" to="1" dur="0.3s" begin="0.17s" fill="freeze"></animate></rect><rect x="26" y="50" width="10" height="10" fill="#f45555" rx="2" ry="2" opacity="0"><animate attributeName="opacity" from="0" to="1" dur="0.3s" begin="0.18s" fill="freeze"></animate></rect><rect x="26" y="62" width="10" height="10" fill="#a80b0b" rx="2" ry="2" opacity="0"><animate attributeName="opacity" from="0" to="1" dur="0.3s" begin="0.19s" fill="freeze"></animate></rect><rect x="26" y="74" width="10" height="10" fill="#a80b0b" rx="2" ry="2" opacity="0"><animate attributeName="opacity" from="0" to="1" dur="0.3s" begin="0.2s" fill="freeze"></animate></rect><rect x="38" y="2" width="10" height="10" fill="#fbb3b3" rx="2" ry="2" opacity="0"><animate attributeName="opacity" from="0" to="1" dur="0.3s" begin="0.21s" fill="freeze"></animate></rect><rect x="38" y="14" width="10" height="10" fill="#a80b0b" rx="2" ry="2" opacity="0"><animate attributeName="opacity" from="0" to="1" dur="0.3s" begin="0.22s" fill="freeze"></animate></rect><rect x="38" y="26" width="10" height="10" fill="#a80b0b" rx="2" ry="2" opacity="0"><animate attributeName="opacity" from="0" to="1" dur="0.3s" begin="0.23s" fill="freeze"></animate></rect><rect x="38" y="38" width="10" height="10" fill="#a80b0b" rx="2" ry="2" opacity="0"><animate attributeName="opacity" from="0" to="1" dur="0.3s" begin="0.24s" fill="freeze"></animate></rect><rect x="38" y="50" width="10" height="10" fill="#a80b0b" rx="2" ry="2" opacity="0"><animate attributeName="opacity" from="0" to="1" dur="0.3s" begin="0.25s" fill="freeze"></animate></rect><rect x="38" y="62" width="10" height="10" fill="#a80b0b" rx="2" ry="2" opacity="0"><animate attributeName="opacity" from="0" to="1" dur="0.3s" begin="0.26s" fill="freeze"></animate></rect><rect x="38" y="74" width="10" height="10" fill="#a80b0b" rx="2" ry="2" opacity="0"><animate attributeName="opacity" from="0" to="1" dur="0.3s" begin="0.27s" fill="freeze"></animate></rect><rect x="50" y="2" width="10" height="10" fill="#a80b0b" rx="2" ry="2" opacity="0"><animate attributeName="opacity" from="0" to="1" dur="0.3s" begin="0.28s" fill="freeze"></animate></rect><rect x="50" y="14" width="10" height="10" fill="#a80b0b" rx="2" ry="2" opacity="0"><animate attributeName="opacity" from="0" to="1" dur="0.3s" begin="0.29s" fill="freeze"></animate></rect><rect x="50" y="26" width="10" height="10" fill="#a80b0b" rx="2" ry="2" opacity="0"><animate attributeName="opacity" from="0" to="1" dur="0.3s" begin="0.3s" fill="freeze"></animate></rect><rect x="50" y="38" width="10" height="10" fill="#f01111" rx="2" ry="2" opacity="0"><animate attributeName="opacity" from="0" to="1" dur="0.3s" begin="0.31s" fill="freeze"></animate></rect><rect x="50" y="50" width="10" height="10" fill="#a80b0b" rx="2" ry="2" opacity="0"><animate attributeName="opacity" from="0" to="1" dur="0.3s" begin="0.32s" fill="freeze"></animate></rect><rect x="50" y="62" width="10" height="10" fill="#a80b0b" rx="2" ry="2" opacity="0"><animate attributeName="opacity" from="0" to="1" dur="0.3s" begin="0.33s" fill="freeze"></animate></rect><rect x="50" y="74" width="10" height="10" fill="#fdd8d8" rx="2" ry="2" opacity="0"><animate attributeName="opacity" from="0" to="1" dur="0.3s" begin="0.34s" fill="freeze"></animate></rect><rect x="62" y="2" width="10" height="10" fill="#fdd8d8" rx="2" ry="2" opacity="0"><animate attributeName="opacity" from="0" to="1" dur="0.3s" begin="0.35000000000000003s" fill="freeze"></animate></rect><rect x="62" y="14" width="10" height="10" fill="#a80b0b" rx="2" ry="2" opacity="0"><animate attributeName="opacity" from="0" to="1" dur="0.3s" begin="0.36s" fill="freeze"></animate></rect><rect x="62" y="26" width="10" height="10" fill="#a80b0b" rx="2" ry="2" opacity="0"><animate attributeName="opacity" from="0" to="1" dur="0.3s" begin="0.37s" fill="freeze"></animate></rect><rect x="62" y="38" width="10" height="10" fill="#a80b0b" rx="2" ry="2" opacity="0"><animate attributeName="opacity" from="0" to="1" dur="0.3s" begin="0.38s" fill="freeze"></animate></rect><rect x="62" y="50" width="10" height="10" fill="#a80b0b" rx="2" ry="2" opacity="0"><animate attributeName="opacity" from="0" to="1" dur="0.3s" begin="0.39s" fill="freeze"></animate></rect><rect x="62" y="62" width="10" height="10" fill="#a80b0b" rx="2" ry="2" opacity="0"><animate attributeName="opacity" from="0" to="1" dur="0.3s" begin="0.4s" fill="freeze"></animate></rect><rect x="62" y="74" width="10" height="10" fill="#a80b0b" rx="2" ry="2" opacity="0"><animate attributeName="opacity" from="0" to="1" dur="0.3s" begin="0.41000000000000003s" fill="freeze"></animate></rect><rect x="74" y="2" width="10" height="10" fill="#cc0e0e" rx="2" ry="2" opacity="0"><animate attributeName="opacity" from="0" to="1" dur="0.3s" begin="0.42s" fill="freeze"></animate></rect><rect x="74" y="14" width="10" height="10" fill="#a80b0b" rx="2" ry="2" opacity="0"><animate attributeName="opacity" from="0" to="1" dur="0.3s" begin="0.43s" fill="freeze"></animate></rect><rect x="74" y="26" width="10" height="10" fill="#a80b0b" rx="2" ry="2" opacity="0"><animate attributeName="opacity" from="0" to="1" dur="0.3s" begin="0.44s" fill="freeze"></animate></rect><rect x="74" y="38" width="10" height="10" fill="#a80b0b" rx="2" ry="2" opacity="0"><animate attributeName="opacity" from="0" to="1" dur="0.3s" begin="0.45s" fill="freeze"></animate></rect><rect x="74" y="50" width="10" height="10" fill="#a80b0b" rx="2" ry="2" opacity="0"><animate attributeName="opacity" from="0" to="1" dur="0.3s" begin="0.46s" fill="freeze"></animate></rect><rect x="74" y="62" width="10" height="10" fill="#a80b0b" rx="2" ry="2" opacity="0"><animate attributeName="opacity" from="0" to="1" dur="0.3s" begin="0.47000000000000003s" fill="freeze"></animate></rect><rect x="74" y="74" width="10" height="10" fill="#f67878" rx="2" ry="2" opacity="0"><animate attributeName="opacity" from="0" to="1" dur="0.3s" begin="0.48s" fill="freeze"></animate></rect><rect x="86" y="2" width="10" height="10" fill="#a80b0b" rx="2" ry="2" opacity="0"><animate attributeName="opacity" from="0" to="1" dur="0.3s" begin="0.49s" fill="freeze"></animate></rect><rect x="86" y="14" width="10" height="10" fill="#a80b0b" rx="2" ry="2" opacity="0"><animate attributeName="opacity" from="0" to="1" dur="0.3s" begin="0.5s" fill="freeze"></animate></rect><rect x="86" y="26" width="10" height="10" fill="#a80b0b" rx="2" ry="2" opacity="0"><animate attributeName="opacity" from="0" to="1" dur="0.3s" begin="0.51s" fill="freeze"></animate></rect><rect x="86" y="38" width="10" height="10" fill="#a80b0b" rx="2" ry="2" opacity="0"><animate attributeName="opacity" from="0" to="1" dur="0.3s" begin="0.52s" fill="freeze"></animate></rect><rect x="86" y="50" width="10" height="10" fill="#a80b0b" rx="2" ry="2" opacity="0"><animate attributeName="opacity" from="0" to="1" dur="0.3s" begin="0.53s" fill="freeze"></animate></rect><rect x="86" y="62" width="10" height="10" fill="#a80b0b" rx="2" ry="2" opacity="0"><animate attributeName="opacity" from="0" to="1" dur="0.3s" begin="0.54s" fill="freeze"></animate></rect><rect x="86" y="74" width="10" height="10" fill="#f01111" rx="2" ry="2" opacity="0"><animate attributeName="opacity" from="0" to="1" dur="0.3s" begin="0.55s" fill="freeze"></animate></rect><rect x="98" y="2" width="10" height="10" fill="#a80b0b" rx="2" ry="2" opacity="0"><animate attributeName="opacity" from="0" to="1" dur="0.3s" begin="0.56s" fill="freeze"></animate></rect><rect x="98" y="14" width="10" height="10" fill="#a80b0b" rx="2" ry="2" opacity="0"><animate attributeName="opacity" from="0" to="1" dur="0.3s" begin="0.5700000000000001s" fill="freeze"></animate></rect><rect x="98" y="26" width="10" height="10" fill="#a80b0b" rx="2" ry="2" opacity="0"><animate attributeName="opacity" from="0" to="1" dur="0.3s" begin="0.58s" fill="freeze"></animate></rect><rect x="98" y="38" width="10" height="10" fill="#a80b0b" rx="2" ry="2" opacity="0"><animate attributeName="opacity" from="0" to="1" dur="0.3s" begin="0.59s" fill="freeze"></animate></rect><rect x="98" y="50" width="10" height="10" fill="#a80b0b" rx="2" ry="2" opacity="0"><animate attributeName="opacity" from="0" to="1" dur="0.3s" begin="0.6s" fill="freeze"></animate></rect><rect x="98" y="62" width="10" height="10" fill="#a80b0b" rx="2" ry="2" opacity="0"><animate attributeName="opacity" from="0" to="1" dur="0.3s" begin="0.61s" fill="freeze"></animate></rect><rect x="98" y="74" width="10" height="10" fill="#f01111" rx="2" ry="2" opacity="0"><animate attributeName="opacity" from="0" to="1" dur="0.3s" begin="0.62s" fill="freeze"></animate></rect><rect x="110" y="2" width="10" height="10" fill="#a80b0b" rx="2" ry="2" opacity="0"><animate attributeName="opacity" from="0" to="1" dur="0.3s" begin="0.63s" fill="freeze"></animate></rect><rect x="110" y="14" width="10" height="10" fill="#a80b0b" rx="2" ry="2" opacity="0"><animate attributeName="opacity" from="0" to="1" dur="0.3s" begin="0.64s" fill="freeze"></animate></rect><rect x="110" y="26" width="10" height="10" fill="#a80b0b" rx="2" ry="2" opacity="0"><animate attributeName="opacity" from="0" to="1" dur="0.3s" begin="0.65s" fill="freeze"></animate></rect><rect x="110" y="38" width="10" height="10" fill="#a80b0b" rx="2" ry="2" opacity="0"><animate attributeName="opacity" from="0" to="1" dur="0.3s" begin="0.66s" fill="freeze"></animate></rect><rect x="110" y="50" width="10" height="10" fill="#a80b0b" rx="2" ry="2" opacity="0"><animate attributeName="opacity" from="0" to="1" dur="0.3s" begin="0.67s" fill="freeze"></animate></rect><rect x="110" y="62" width="10" height="10" fill="#a80b0b" rx="2" ry="2" opacity="0"><animate attributeName="opacity" from="0" to="1" dur="0.3s" begin="0.68s" fill="freeze"></animate></rect><rect x="110" y="74" width="10" height="10" fill="#a80b0b" rx="2" ry="2" opacity="0"><animate attributeName="opacity" from="0" to="1" dur="0.3s" begin="0.6900000000000001s" fill="freeze"></animate></rect><rect x="122" y="2" width="10" height="10" fill="#a80b0b" rx="2" ry="2" opacity="0"><animate attributeName="opacity" from="0" to="1" dur="0.3s" begin="0.7000000000000001s" fill="freeze"></animate></rect><rect x="122" y="14" width="10" height="10" fill="#a80b0b" rx="2" ry="2" opacity="0"><animate attributeName="opacity" from="0" to="1" dur="0.3s" begin="0.71s" fill="freeze"></animate></rect><rect x="122" y="26" width="10" height="10" fill="#a80b0b" rx="2" ry="2" opacity="0"><animate attributeName="opacity" from="0" to="1" dur="0.3s" begin="0.72s" fill="freeze"></animate></rect><rect x="122" y="38" width="10" height="10" fill="#a80b0b" rx="2" ry="2" opacity="0"><animate attributeName="opacity" from="0" to="1" dur="0.3s" begin="0.73s" fill="freeze"></animate></rect><rect x="122" y="50" width="10" height="10" fill="#a80b0b" rx="2" ry="2" opacity="0"><animate attributeName="opacity" from="0" to="1" dur="0.3s" begin="0.74s" fill="freeze"></animate></rect><rect x="122" y="62" width="10" height="10" fill="#a80b0b" rx="2" ry="2" opacity="0"><animate attributeName="opacity" from="0" to="1" dur="0.3s" begin="0.75s" fill="freeze"></animate></rect><rect x="122" y="74" width="10" height="10" fill="#a80b0b" rx="2" ry="2" opacity="0"><animate attributeName="opacity" from="0" to="1" dur="0.3s" begin="0.76s" fill="freeze"></animate></rect><rect x="134" y="2" width="10" height="10" fill="#a80b0b" rx="2" ry="2" opacity="0"><animate attributeName="opacity" from="0" to="1" dur="0.3s" begin="0.77s" fill="freeze"></animate></rect><rect x="134" y="14" width="10" height="10" fill="#a80b0b" rx="2" ry="2" opacity="0"><animate attributeName="opacity" from="0" to="1" dur="0.3s" begin="0.78s" fill="freeze"></animate></rect><rect x="134" y="26" width="10" height="10" fill="#a80b0b" rx="2" ry="2" opacity="0"><animate attributeName="opacity" from="0" to="1" dur="0.3s" begin="0.79s" fill="freeze"></animate></rect><rect x="134" y="38" width="10" height="10" fill="#a80b0b" rx="2" ry="2" opacity="0"><animate attributeName="opacity" from="0" to="1" dur="0.3s" begin="0.8s" fill="freeze"></animate></rect><rect x="134" y="50" width="10" height="10" fill="#a80b0b" rx="2" ry="2" opacity="0"><animate attributeName="opacity" from="0" to="1" dur="0.3s" begin="0.81s" fill="freeze"></animate></rect><rect x="134" y="62" width="10" height="10" fill="#a80b0b" rx="2" ry="2" opacity="0"><animate attributeName="opacity" from="0" to="1" dur="0.3s" begin="0.8200000000000001s" fill="freeze"></animate></rect><rect x="134" y="74" width="10" height="10" fill="#a80b0b" rx="2" ry="2" opacity="0"><animate attributeName="opacity" from="0" to="1" dur="0.3s" begin="0.8300000000000001s" fill="freeze"></animate></rect><rect x="146" y="2" width="10" height="10" fill="#a80b0b" rx="2" ry="2" opacity="0"><animate attributeName="opacity" from="0" to="1" dur="0.3s" begin="0.84s" fill="freeze"></animate></rect><rect x="146" y="14" width="10" height="10" fill="#a80b0b" rx="2" ry="2" opacity="0"><animate attributeName="opacity" from="0" to="1" dur="0.3s" begin="0.85s" fill="freeze"></animate></rect><rect x="146" y="26" width="10" height="10" fill="#a80b0b" rx="2" ry="2" opacity="0"><animate attributeName="opacity" from="0" to="1" dur="0.3s" begin="0.86s" fill="freeze"></animate></rect><rect x="146" y="38" width="10" height="10" fill="#fbb3b3" rx="2" ry="2" opacity="0"><animate attributeName="opacity" from="0" to="1" dur="0.3s" begin="0.87s" fill="freeze"></animate></rect><rect x="146" y="50" width="10" height="10" fill="#a80b0b" rx="2" ry="2" opacity="0"><animate attributeName="opacity" from="0" to="1" dur="0.3s" begin="0.88s" fill="freeze"></animate></rect><rect x="146" y="62" width="10" height="10" fill="#a80b0b" rx="2" ry="2" opacity="0"><animate attributeName="opacity" from="0" to="1" dur="0.3s" begin="0.89s" fill="freeze"></animate></rect><rect x="146" y="74" width="10" height="10" fill="#a80b0b" rx="2" ry="2" opacity="0"><animate attributeName="opacity" from="0" to="1" dur="0.3s" begin="0.9s" fill="freeze"></animate></rect><rect x="158" y="2" width="10" height="10" fill="#fbb3b3" rx="2" ry="2" opacity="0"><animate attributeName="opacity" from="0" to="1" dur="0.3s" begin="0.91s" fill="freeze"></animate></rect><rect x="158" y="14" width="10" height="10" fill="#f67878" rx="2" ry="2" opacity="0"><animate attributeName="opacity" from="0" to="1" dur="0.3s" begin="0.92s" fill="freeze"></animate></rect><rect x="158" y="26" width="10" height="10" fill="#a80b0b" rx="2" ry="2" opacity="0"><animate attributeName="opacity" from="0" to="1" dur="0.3s" begin="0.93s" fill="freeze"></animate></rect><rect x="158" y="38" width="10" height="10" fill="#a80b0b" rx="2" ry="2" opacity="0"><animate attributeName="opacity" from="0" to="1" dur="0.3s" begin="0.9400000000000001s" fill="freeze"></animate></rect><rect x="158" y="50" width="10" height="10" fill="#a80b0b" rx="2" ry="2" opacity="0"><animate attributeName="opacity" from="0" to="1" dur="0.3s" begin="0.9500000000000001s" fill="freeze"></animate></rect><rect x="158" y="62" width="10" height="10" fill="#a80b0b" rx="2" ry="2" opacity="0"><animate attributeName="opacity" from="0" to="1" dur="0.3s" begin="0.96s" fill="freeze"></animate></rect><rect x="158" y="74" width="10" height="10" fill="#a80b0b" rx="2" ry="2" opacity="0"><animate attributeName="opacity" from="0" to="1" dur="0.3s" begin="0.97s" fill="freeze"></animate></rect><rect x="170" y="2" width="10" height="10" fill="#a80b0b" rx="2" ry="2" opacity="0"><animate attributeName="opacity" from="0" to="1" dur="0.3s" begin="0.98s" fill="freeze"></animate></rect><rect x="170" y="14" width="10" height="10" fill="#a80b0b" rx="2" ry="2" opacity="0"><animate attributeName="opacity" from="0" to="1" dur="0.3s" begin="0.99s" fill="freeze"></animate></rect><rect x="170" y="26" width="10" height="10" fill="#a80b0b" rx="2" ry="2" opacity="0"><animate attributeName="opacity" from="0" to="1" dur="0.3s" begin="1s" fill="freeze"></animate></rect><rect x="170" y="38" width="10" height="10" fill="#a80b0b" rx="2" ry="2" opacity="0"><animate attributeName="opacity" from="0" to="1" dur="0.3s" begin="1.01s" fill="freeze"></animate></rect><rect x="170" y="50" width="10" height="10" fill="#a80b0b" rx="2" ry="2" opacity="0"><animate attributeName="opacity" from="0" to="1" dur="0.3s" begin="1.02s" fill="freeze"></animate></rect><rect x="170" y="62" width="10" height="10" fill="#a80b0b" rx="2" ry="2" opacity="0"><animate attributeName="opacity" from="0" to="1" dur="0.3s" begin="1.03s" fill="freeze"></animate></rect><rect x="170" y="74" width="10" height="10" fill="#f67878" rx="2" ry="2" opacity="0"><animate attributeName="opacity" from="0" to="1" dur="0.3s" begin="1.04s" fill="freeze"></animate></rect><rect x="182" y="2" width="10" height="10" fill="#a80b0b" rx="2" ry="2" opacity="0"><animate attributeName="opacity" from="0" to="1" dur="0.3s" begin="1.05s" fill="freeze"></animate></rect><rect x="182" y="14" width="10" height="10" fill="#a80b0b" rx="2" ry="2" opacity="0"><animate attributeName="opacity" from="0" to="1" dur="0.3s" begin="1.06s" fill="freeze"></animate></rect><rect x="182" y="26" width="10" height="10" fill="#a80b0b" rx="2" ry="2" opacity="0"><animate attributeName="opacity" from="0" to="1" dur="0.3s" begin="1.07s" fill="freeze"></animate></rect><rect x="182" y="38" width="10" height="10" fill="#a80b0b" rx="2" ry="2" opacity="0"><animate attributeName="opacity" from="0" to="1" dur="0.3s" begin="1.08s" fill="freeze"></animate></rect><rect x="182" y="50" width="10" height="10" fill="#fdd8d8" rx="2" ry="2" opacity="0"><animate attributeName="opacity" from="0" to="1" dur="0.3s" begin="1.09s" fill="freeze"></animate></rect><rect x="182" y="62" width="10" height="10" fill="#f67878" rx="2" ry="2" opacity="0"><animate attributeName="opacity" from="0" to="1" dur="0.3s" begin="1.1s" fill="freeze"></animate></rect><rect x="182" y="74" width="10" height="10" fill="#f67878" rx="2" ry="2" opacity="0"><animate attributeName="opacity" from="0" to="1" dur="0.3s" begin="1.11s" fill="freeze"></animate></rect><rect x="194" y="2" width="10" height="10" fill="#fdd8d8" rx="2" ry="2" opacity="0"><animate attributeName="opacity" from="0" to="1" dur="0.3s" begin="1.12s" fill="freeze"></animate></rect><rect x="194" y="14" width="10" height="10" fill="#a80b0b" rx="2" ry="2" opacity="0"><animate attributeName="opacity" from="0" to="1" dur="0.3s" begin="1.1300000000000001s" fill="freeze"></animate></rect><rect x="194" y="26" width="10" height="10" fill="#a80b0b" rx="2" ry="2" opacity="0"><animate attributeName="opacity" from="0" to="1" dur="0.3s" begin="1.1400000000000001s" fill="freeze"></animate></rect><rect x="194" y="38" width="10" height="10" fill="#a80b0b" rx="2" ry="2" opacity="0"><animate attributeName="opacity" from="0" to="1" dur="0.3s" begin="1.1500000000000001s" fill="freeze"></animate></rect><rect x="194" y="50" width="10" height="10" fill="#a80b0b" rx="2" ry="2" opacity="0"><animate attributeName="opacity" from="0" to="1" dur="0.3s" begin="1.16s" fill="freeze"></animate></rect><rect x="194" y="62" width="10" height="10" fill="#a80b0b" rx="2" ry="2" opacity="0"><animate attributeName="opacity" from="0" to="1" dur="0.3s" begin="1.17s" fill="freeze"></animate></rect><rect x="194" y="74" width="10" height="10" fill="#fdd8d8" rx="2" ry="2" opacity="0"><animate attributeName="opacity" from="0" to="1" dur="0.3s" begin="1.18s" fill="freeze"></animate></rect><rect x="206" y="2" width="10" height="10" fill="#a80b0b" rx="2" ry="2" opacity="0"><animate attributeName="opacity" from="0" to="1" dur="0.3s" begin="1.19s" fill="freeze"></animate></rect><rect x="206" y="14" width="10" height="10" fill="#a80b0b" rx="2" ry="2" opacity="0"><animate attributeName="opacity" from="0" to="1" dur="0.3s" begin="1.2s" fill="freeze"></animate></rect><rect x="206" y="26" width="10" height="10" fill="#a80b0b" rx="2" ry="2" opacity="0"><animate attributeName="opacity" from="0" to="1" dur="0.3s" begin="1.21s" fill="freeze"></animate></rect><rect x="206" y="38" width="10" height="10" fill="#a80b0b" rx="2" ry="2" opacity="0"><animate attributeName="opacity" from="0" to="1" dur="0.3s" begin="1.22s" fill="freeze"></animate></rect><rect x="206" y="50" width="10" height="10" fill="#a80b0b" rx="2" ry="2" opacity="0"><animate attributeName="opacity" from="0" to="1" dur="0.3s" begin="1.23s" fill="freeze"></animate></rect><rect x="206" y="62" width="10" height="10" fill="#fdd8d8" rx="2" ry="2" opacity="0"><animate attributeName="opacity" from="0" to="1" dur="0.3s" begin="1.24s" fill="freeze"></animate></rect><rect x="206" y="74" width="10" height="10" fill="#fdd8d8" rx="2" ry="2" opacity="0"><animate attributeName="opacity" from="0" to="1" dur="0.3s" begin="1.25s" fill="freeze"></animate></rect><rect x="218" y="2" width="10" height="10" fill="#f99b9b" rx="2" ry="2" opacity="0"><animate attributeName="opacity" from="0" to="1" dur="0.3s" begin="1.26s" fill="freeze"></animate></rect><rect x="218" y="14" width="10" height="10" fill="#a80b0b" rx="2" ry="2" opacity="0"><animate attributeName="opacity" from="0" to="1" dur="0.3s" begin="1.27s" fill="freeze"></animate></rect><rect x="218" y="26" width="10" height="10" fill="#a80b0b" rx="2" ry="2" opacity="0"><animate attributeName="opacity" from="0" to="1" dur="0.3s" begin="1.28s" fill="freeze"></animate></rect><rect x="218" y="38" width="10" height="10" fill="#a80b0b" rx="2" ry="2" opacity="0"><animate attributeName="opacity" from="0" to="1" dur="0.3s" begin="1.29s" fill="freeze"></animate></rect><rect x="218" y="50" width="10" height="10" fill="#a80b0b" rx="2" ry="2" opacity="0"><animate attributeName="opacity" from="0" to="1" dur="0.3s" begin="1.3s" fill="freeze"></animate></rect><rect x="218" y="62" width="10" height="10" fill="#a80b0b" rx="2" ry="2" opacity="0"><animate attributeName="opacity" from="0" to="1" dur="0.3s" begin="1.31s" fill="freeze"></animate></rect><rect x="218" y="74" width="10" height="10" fill="#f23333" rx="2" ry="2" opacity="0"><animate attributeName="opacity" from="0" to="1" dur="0.3s" begin="1.32s" fill="freeze"></animate></rect><rect x="230" y="2" width="10" height="10" fill="#a80b0b" rx="2" ry="2" opacity="0"><animate attributeName="opacity" from="0" to="1" dur="0.3s" begin="1.33s" fill="freeze"></animate></rect><rect x="230" y="14" width="10" height="10" fill="#a80b0b" rx="2" ry="2" opacity="0"><animate attributeName="opacity" from="0" to="1" dur="0.3s" begin="1.34s" fill="freeze"></animate></rect><rect x="230" y="26" width="10" height="10" fill="#a80b0b" rx="2" ry="2" opacity="0"><animate attributeName="opacity" from="0" to="1" dur="0.3s" begin="1.35s" fill="freeze"></animate></rect><rect x="230" y="38" width="10" height="10" fill="#a80b0b" rx="2" ry="2" opacity="0"><animate attributeName="opacity" from="0" to="1" dur="0.3s" begin="1.36s" fill="freeze"></animate></rect><rect x="230" y="50" width="10" height="10" fill="#fbb3b3" rx="2" ry="2" opacity="0"><animate attributeName="opacity" from="0" to="1" dur="0.3s" begin="1.37s" fill="freeze"></animate></rect>
    <circle cx="122.25" cy="41.7" fill="#ffffff99" r="39.05" />
    <path fill-rule="evenodd" clip-rule="evenodd" transform="scale(0.8, 0.8) translate(104, 3)"
        d="M48.854 0C21.839 0 0 22 0 49.217c0 21.756 13.993 40.172 33.405 46.69 2.427.49 3.316-1.059 3.316-2.362 0-1.141-.08-5.052-.08-9.127-13.59 2.934-16.42-5.867-16.42-5.867-2.184-5.704-5.42-7.17-5.42-7.17-4.448-3.015.324-3.015.324-3.015 4.934.326 7.523 5.052 7.523 5.052 4.367 7.496 11.404 5.378 14.235 4.074.404-3.178 1.699-5.378 3.074-6.6-10.839-1.141-22.243-5.378-22.243-24.283 0-5.378 1.94-9.778 5.014-13.2-.485-1.222-2.184-6.275.486-13.038 0 0 4.125-1.304 13.426 5.052a46.97 46.97 0 0 1 12.214-1.63c4.125 0 8.33.571 12.213 1.63 9.302-6.356 13.427-5.052 13.427-5.052 2.67 6.763.97 11.816.485 13.038 3.155 3.422 5.015 7.822 5.015 13.2 0 18.905-11.404 23.06-22.324 24.283 1.78 1.548 3.316 4.481 3.316 9.126 0 6.6-.08 11.897-.08 13.526 0 1.304.89 2.853 3.316 2.364 19.412-6.52 33.405-24.935 33.405-46.691C97.707 22 75.788 0 48.854 0z"
        fill="#00000099" />
  </svg>