<svg baseProfile="tiny" height="100%" version="1.2" viewBox="0,0,242,86" width="100%" xmlns="http://www.w3.org/2000/svg" xmlns:ev="http://www.w3.org/2001/xml-events" xmlns:xlink="http://www.w3.org/1999/xlink"><defs /><rect fill="#ffffff" height="86" rx="2" ry="2" width="242" x="0" y="0" /><rect fill="#9be9a8" height="10" rx="2" ry="2" width="10" x="2" y="2" /><rect fill="#40e463" height="10" rx="2" ry="2" width="10" x="2" y="14" /><rect fill="#30a14e" height="10" rx="2" ry="2" width="10" x="2" y="26" /><rect fill="#216e39" height="10" rx="2" ry="2" width="10" x="2" y="38" /><rect fill="#40c463" height="10" rx="2" ry="2" width="10" x="2" y="50" /><rect fill="#d7d9db" height="10" rx="2" ry="2" width="10" x="2" y="62" /><rect fill="#d7d9db" height="10" rx="2" ry="2" width="10" x="2" y="74" /><rect fill="#d7d9db" height="10" rx="2" ry="2" width="10" x="14" y="2" /><rect fill="#30b14e" height="10" rx="2" ry="2" width="10" x="14" y="14" /><rect fill="#9be9a8" height="10" rx="2" ry="2" width="10" x="14" y="26" /><rect fill="#c6f9bb" height="10" rx="2" ry="2" width="10" x="14" y="38" /><rect fill="#d7d9db" height="10" rx="2" ry="2" width="10" x="14" y="50" /><rect fill="#c6f9bb" height="10" rx="2" ry="2" width="10" x="14" y="62" /><rect fill="#c6f9bb" height="10" rx="2" ry="2" width="10" x="14" y="74" /><rect fill="#d7d9db" height="10" rx="2" ry="2" width="10" x="26" y="2" /><rect fill="#30b14e" height="10" rx="2" ry="2" width="10" x="26" y="14" /><rect fill="#d7d9db" height="10" rx="2" ry="2" width="10" x="26" y="26" /><rect fill="#c6f9bb" height="10" rx="2" ry="2" width="10" x="26" y="38" /><rect fill="#d7d9db" height="10" rx="2" ry="2" width="10" x="26" y="50" /><rect fill="#40c463" height="10" rx="2" ry="2" width="10" x="26" y="62" /><rect fill="#40e463" height="10" rx="2" ry="2" width="10" x="26" y="74" /><rect fill="#40e463" height="10" rx="2" ry="2" width="10" x="38" y="2" /><rect fill="#d7d9db" height="10" rx="2" ry="2" width="10" x="38" y="14" /><rect fill="#d7d9db" height="10" rx="2" ry="2" width="10" x="38" y="26" /><rect fill="#c6f9bb" height="10" rx="2" ry="2" width="10" x="38" y="38" /><rect fill="#d7d9db" height="10" rx="2" ry="2" width="10" x="38" y="50" /><rect fill="#d7d9db" height="10" rx="2" ry="2" width="10" x="38" y="62" /><rect fill="#d7d9db" height="10" rx="2" ry="2" width="10" x="38" y="74" /><rect fill="#9be9a8" height="10" rx="2" ry="2" width="10" x="50" y="2" /><rect fill="#d7d9db" height="10" rx="2" ry="2" width="10" x="50" y="14" /><rect fill="#9be9a8" height="10" rx="2" ry="2" width="10" x="50" y="26" /><rect fill="#c6f9bb" height="10" rx="2" ry="2" width="10" x="50" y="38" /><rect fill="#9be9a8" height="10" rx="2" ry="2" width="10" x="50" y="50" /><rect fill="#216e39" height="10" rx="2" ry="2" width="10" x="50" y="62" /><rect fill="#d7d9db" height="10" rx="2" ry="2" width="10" x="50" y="74" /><rect fill="#30a14e" height="10" rx="2" ry="2" width="10" x="62" y="2" /><rect fill="#40c463" height="10" rx="2" ry="2" width="10" x="62" y="14" /><rect fill="#30a14e" height="10" rx="2" ry="2" width="10" x="62" y="26" /><rect fill="#216e39" height="10" rx="2" ry="2" width="10" x="62" y="38" /><rect fill="#d7d9db" height="10" rx="2" ry="2" width="10" x="62" y="50" /><rect fill="#40e463" height="10" rx="2" ry="2" width="10" x="62" y="62" /><rect fill="#216e39" height="10" rx="2" ry="2" width="10" x="62" y="74" /><rect fill="#d7d9db" height="10" rx="2" ry="2" width="10" x="74" y="2" /><rect fill="#30b14e" height="10" rx="2" ry="2" width="10" x="74" y="14" /><rect fill="#d7d9db" height="10" rx="2" ry="2" width="10" x="74" y="26" /><rect fill="#c6f9bb" height="10" rx="2" ry="2" width="10" x="74" y="38" /><rect fill="#d7d9db" height="10" rx="2" ry="2" width="10" x="74" y="50" /><rect fill="#d7d9db" height="10" rx="2" ry="2" width="10" x="74" y="62" /><rect fill="#218e39" height="10" rx="2" ry="2" width="10" x="74" y="74" /><rect fill="#d7d9db" height="10" rx="2" ry="2" width="10" x="86" y="2" /><rect fill="#d7d9db" height="10" rx="2" ry="2" width="10" x="86" y="14" /><rect fill="#30b14e" height="10" rx="2" ry="2" width="10" x="86" y="26" /><rect fill="#216e39" height="10" rx="2" ry="2" width="10" x="86" y="38" /><rect fill="#216e39" height="10" rx="2" ry="2" width="10" x="86" y="50" /><rect fill="#30b14e" height="10" rx="2" ry="2" width="10" x="86" y="62" /><rect fill="#c6f9bb" height="10" rx="2" ry="2" width="10" x="86" y="74" /><rect fill="#216e39" height="10" rx="2" ry="2" width="10" x="98" y="2" /><rect fill="#40c463" height="10" rx="2" ry="2" width="10" x="98" y="14" /><rect fill="#216e39" height="10" rx="2" ry="2" width="10" x="98" y="26" /><rect fill="#216e39" height="10" rx="2" ry="2" width="10" x="98" y="38" /><rect fill="#30b14e" height="10" rx="2" ry="2" width="10" x="98" y="50" /><rect fill="#40e463" height="10" rx="2" ry="2" width="10" x="98" y="62" /><rect fill="#d7d9db" height="10" rx="2" ry="2" width="10" x="98" y="74" /><rect fill="#40e463" height="10" rx="2" ry="2" width="10" x="110" y="2" /><rect fill="#30b14e" height="10" rx="2" ry="2" width="10" x="110" y="14" /><rect fill="#d7d9db" height="10" rx="2" ry="2" width="10" x="110" y="26" /><rect fill="#d7d9db" height="10" rx="2" ry="2" width="10" x="110" y="38" /><rect fill="#d7d9db" height="10" rx="2" ry="2" width="10" x="110" y="50" /><rect fill="#9be9a8" height="10" rx="2" ry="2" width="10" x="110" y="62" /><rect fill="#216e39" height="10" rx="2" ry="2" width="10" x="110" y="74" /><rect fill="#216e39" height="10" rx="2" ry="2" width="10" x="122" y="2" /><rect fill="#c6f9bb" height="10" rx="2" ry="2" width="10" x="122" y="14" /><rect fill="#218e39" height="10" rx="2" ry="2" width="10" x="122" y="26" /><rect fill="#218e39" height="10" rx="2" ry="2" width="10" x="122" y="38" /><rect fill="#216e39" height="10" rx="2" ry="2" width="10" x="122" y="50" /><rect fill="#218e39" height="10" rx="2" ry="2" width="10" x="122" y="62" /><rect fill="#40e463" height="10" rx="2" ry="2" width="10" x="122" y="74" /><rect fill="#d7d9db" height="10" rx="2" ry="2" width="10" x="134" y="2" /><rect fill="#d7d9db" height="10" rx="2" ry="2" width="10" x="134" y="14" /><rect fill="#40e463" height="10" rx="2" ry="2" width="10" x="134" y="26" /><rect fill="#30a14e" height="10" rx="2" ry="2" width="10" x="134" y="38" /><rect fill="#d7d9db" height="10" rx="2" ry="2" width="10" x="134" y="50" /><rect fill="#d7d9db" height="10" rx="2" ry="2" width="10" x="134" y="62" /><rect fill="#c6f9bb" height="10" rx="2" ry="2" width="10" x="134" y="74" /><rect fill="#30b14e" height="10" rx="2" ry="2" width="10" x="146" y="2" /><rect fill="#40e463" height="10" rx="2" ry="2" width="10" x="146" y="14" /><rect fill="#d7d9db" height="10" rx="2" ry="2" width="10" x="146" y="26" /><rect fill="#40e463" height="10" rx="2" ry="2" width="10" x="146" y="38" /><rect fill="#9be9a8" height="10" rx="2" ry="2" width="10" x="146" y="50" /><rect fill="#d7d9db" height="10" rx="2" ry="2" width="10" x="146" y="62" /><rect fill="#d7d9db" height="10" rx="2" ry="2" width="10" x="146" y="74" /><rect fill="#d7d9db" height="10" rx="2" ry="2" width="10" x="158" y="2" /><rect fill="#d7d9db" height="10" rx="2" ry="2" width="10" x="158" y="14" /><rect fill="#c6f9bb" height="10" rx="2" ry="2" width="10" x="158" y="26" /><rect fill="#216e39" height="10" rx="2" ry="2" width="10" x="158" y="38" /><rect fill="#40e463" height="10" rx="2" ry="2" width="10" x="158" y="50" /><rect fill="#d7d9db" height="10" rx="2" ry="2" width="10" x="158" y="62" /><rect fill="#216e39" height="10" rx="2" ry="2" width="10" x="158" y="74" /><rect fill="#40e463" height="10" rx="2" ry="2" width="10" x="170" y="2" /><rect fill="#9be9a8" height="10" rx="2" ry="2" width="10" x="170" y="14" /><rect fill="#d7d9db" height="10" rx="2" ry="2" width="10" x="170" y="26" /><rect fill="#40c463" height="10" rx="2" ry="2" width="10" x="170" y="38" /><rect fill="#d7d9db" height="10" rx="2" ry="2" width="10" x="170" y="50" /><rect fill="#d7d9db" height="10" rx="2" ry="2" width="10" x="170" y="62" /><rect fill="#d7d9db" height="10" rx="2" ry="2" width="10" x="170" y="74" /><rect fill="#d7d9db" height="10" rx="2" ry="2" width="10" x="182" y="2" /><rect fill="#d7d9db" height="10" rx="2" ry="2" width="10" x="182" y="14" /><rect fill="#216e39" height="10" rx="2" ry="2" width="10" x="182" y="26" /><rect fill="#216e39" height="10" rx="2" ry="2" width="10" x="182" y="38" /><rect fill="#216e39" height="10" rx="2" ry="2" width="10" x="182" y="50" /><rect fill="#d7d9db" height="10" rx="2" ry="2" width="10" x="182" y="62" /><rect fill="#d7d9db" height="10" rx="2" ry="2" width="10" x="182" y="74" /><rect fill="#216e39" height="10" rx="2" ry="2" width="10" x="194" y="2" /><rect fill="#40e463" height="10" rx="2" ry="2" width="10" x="194" y="14" /><rect fill="#40e463" height="10" rx="2" ry="2" width="10" x="194" y="26" /><rect fill="#216e39" height="10" rx="2" ry="2" width="10" x="194" y="38" /><rect fill="#216e39" height="10" rx="2" ry="2" width="10" x="194" y="50" /><rect fill="#c6f9bb" height="10" rx="2" ry="2" width="10" x="194" y="62" /><rect fill="#c6f9bb" height="10" rx="2" ry="2" width="10" x="194" y="74" /><rect fill="#c6f9bb" height="10" rx="2" ry="2" width="10" x="206" y="2" /><rect fill="#c6f9bb" height="10" rx="2" ry="2" width="10" x="206" y="14" /><rect fill="#c6f9bb" height="10" rx="2" ry="2" width="10" x="206" y="26" /><rect fill="#40c463" height="10" rx="2" ry="2" width="10" x="206" y="38" /><rect fill="#9be9a8" height="10" rx="2" ry="2" width="10" x="206" y="50" /><rect fill="#c6f9bb" height="10" rx="2" ry="2" width="10" x="206" y="62" /><rect fill="#c6f9bb" height="10" rx="2" ry="2" width="10" x="206" y="74" /><rect fill="#c6f9bb" height="10" rx="2" ry="2" width="10" x="218" y="2" /><rect fill="#c6f9bb" height="10" rx="2" ry="2" width="10" x="218" y="14" /><rect fill="#c6f9bb" height="10" rx="2" ry="2" width="10" x="218" y="26" /><rect fill="#9be9a8" height="10" rx="2" ry="2" width="10" x="218" y="38" /><rect fill="#c6f9bb" height="10" rx="2" ry="2" width="10" x="218" y="50" /><rect fill="#c6f9bb" height="10" rx="2" ry="2" width="10" x="218" y="62" /><rect fill="#c6f9bb" height="10" rx="2" ry="2" width="10" x="218" y="74" /><rect fill="#c6f9bb" height="10" rx="2" ry="2" width="10" x="230" y="2" /><rect fill="#c6f9bb" height="10" rx="2" ry="2" width="10" x="230" y="14" /><rect fill="#c6f9bb" height="10" rx="2" ry="2" width="10" x="230" y="26" /><rect fill="#c6f9bb" height="10" rx="2" ry="2" width="10" x="230" y="38" /><rect fill="#40e463" height="10" rx="2" ry="2" width="10" x="230" y="50" /><rect fill="#d7d9db" height="10" rx="2" ry="2" width="10" x="230" y="62" />
    <circle cx="122.3" cy="42" fill="#ffffff" r="39" />
    <path fill-rule="evenodd" clip-rule="evenodd" transform="scale(0.8, 0.8) translate(104, 3)"
        d="M48.854 0C21.839 0 0 22 0 49.217c0 21.756 13.993 40.172 33.405 46.69 2.427.49 3.316-1.059 3.316-2.362 0-1.141-.08-5.052-.08-9.127-13.59 2.934-16.42-5.867-16.42-5.867-2.184-5.704-5.42-7.17-5.42-7.17-4.448-3.015.324-3.015.324-3.015 4.934.326 7.523 5.052 7.523 5.052 4.367 7.496 11.404 5.378 14.235 4.074.404-3.178 1.699-5.378 3.074-6.6-10.839-1.141-22.243-5.378-22.243-24.283 0-5.378 1.94-9.778 5.014-13.2-.485-1.222-2.184-6.275.486-13.038 0 0 4.125-1.304 13.426 5.052a46.97 46.97 0 0 1 12.214-1.63c4.125 0 8.33.571 12.213 1.63 9.302-6.356 13.427-5.052 13.427-5.052 2.67 6.763.97 11.816.485 13.038 3.155 3.422 5.015 7.822 5.015 13.2 0 18.905-11.404 23.06-22.324 24.283 1.78 1.548 3.316 4.481 3.316 9.126 0 6.6-.08 11.897-.08 13.526 0 1.304.89 2.853 3.316 2.364 19.412-6.52 33.405-24.935 33.405-46.691C97.707 22 75.788 0 48.854 0z"
        fill="#000000" />
    </svg>