<svg baseProfile="tiny" height="100%" version="1.2" viewBox="0,0,242,86" width="100%" xmlns="http://www.w3.org/2000/svg" xmlns:ev="http://www.w3.org/2001/xml-events" xmlns:xlink="http://www.w3.org/1999/xlink"><defs /><rect fill="#ffffff" height="86" rx="2" ry="2" width="242" x="0" y="0" /><rect fill="#f67878" height="10" opacity="0" rx="2" ry="2" width="10" x="2" y="2"><animate attributeName="opacity" begin="0.0s" dur="0.3s" fill="freeze" from="0" to="1" /></rect><rect fill="#f01111" height="10" opacity="0" rx="2" ry="2" width="10" x="2" y="14"><animate attributeName="opacity" begin="0.01s" dur="0.3s" fill="freeze" from="0" to="1" /></rect><rect fill="#f67878" height="10" opacity="0" rx="2" ry="2" width="10" x="2" y="26"><animate attributeName="opacity" begin="0.02s" dur="0.3s" fill="freeze" from="0" to="1" /></rect><rect fill="#fbb3b3" height="10" opacity="0" rx="2" ry="2" width="10" x="2" y="38"><animate attributeName="opacity" begin="0.03s" dur="0.3s" fill="freeze" from="0" to="1" /></rect><rect fill="#fbb3b3" height="10" opacity="0" rx="2" ry="2" width="10" x="2" y="50"><animate attributeName="opacity" begin="0.04s" dur="0.3s" fill="freeze" from="0" to="1" /></rect><rect fill="#f01111" height="10" opacity="0" rx="2" ry="2" width="10" x="2" y="62"><animate attributeName="opacity" begin="0.05s" dur="0.3s" fill="freeze" from="0" to="1" /></rect><rect fill="#fbb3b3" height="10" opacity="0" rx="2" ry="2" width="10" x="2" y="74"><animate attributeName="opacity" begin="0.06s" dur="0.3s" fill="freeze" from="0" to="1" /></rect><rect fill="#f45555" height="10" opacity="0" rx="2" ry="2" width="10" x="14" y="2"><animate attributeName="opacity" begin="0.07s" dur="0.3s" fill="freeze" from="0" to="1" /></rect><rect fill="#fbb3b3" height="10" opacity="0" rx="2" ry="2" width="10" x="14" y="14"><animate attributeName="opacity" begin="0.08s" dur="0.3s" fill="freeze" from="0" to="1" /></rect><rect fill="#f45555" height="10" opacity="0" rx="2" ry="2" width="10" x="14" y="26"><animate attributeName="opacity" begin="0.09s" dur="0.3s" fill="freeze" from="0" to="1" /></rect><rect fill="#a80b0b" height="10" opacity="0" rx="2" ry="2" width="10" x="14" y="38"><animate attributeName="opacity" begin="0.1s" dur="0.3s" fill="freeze" from="0" to="1" /></rect><rect fill="#f23333" height="10" opacity="0" rx="2" ry="2" width="10" x="14" y="50"><animate attributeName="opacity" begin="0.11s" dur="0.3s" fill="freeze" from="0" to="1" /></rect><rect fill="#f23333" height="10" opacity="0" rx="2" ry="2" width="10" x="14" y="62"><animate attributeName="opacity" begin="0.12s" dur="0.3s" fill="freeze" from="0" to="1" /></rect><rect fill="#a80b0b" height="10" opacity="0" rx="2" ry="2" width="10" x="14" y="74"><animate attributeName="opacity" begin="0.13s" dur="0.3s" fill="freeze" from="0" to="1" /></rect><rect fill="#f01111" height="10" opacity="0" rx="2" ry="2" width="10" x="26" y="2"><animate attributeName="opacity" begin="0.14s" dur="0.3s" fill="freeze" from="0" to="1" /></rect><rect fill="#f01111" height="10" opacity="0" rx="2" ry="2" width="10" x="26" y="14"><animate attributeName="opacity" begin="0.15s" dur="0.3s" fill="freeze" from="0" to="1" /></rect><rect fill="#fdd8d8" height="10" opacity="0" rx="2" ry="2" width="10" x="26" y="26"><animate attributeName="opacity" begin="0.16s" dur="0.3s" fill="freeze" from="0" to="1" /></rect><rect fill="#fbb3b3" height="10" opacity="0" rx="2" ry="2" width="10" x="26" y="38"><animate attributeName="opacity" begin="0.17s" dur="0.3s" fill="freeze" from="0" to="1" /></rect><rect fill="#f01111" height="10" opacity="0" rx="2" ry="2" width="10" x="26" y="50"><animate attributeName="opacity" begin="0.18s" dur="0.3s" fill="freeze" from="0" to="1" /></rect><rect fill="#f01111" height="10" opacity="0" rx="2" ry="2" width="10" x="26" y="62"><animate attributeName="opacity" begin="0.19s" dur="0.3s" fill="freeze" from="0" to="1" /></rect><rect fill="#f99b9b" height="10" opacity="0" rx="2" ry="2" width="10" x="26" y="74"><animate attributeName="opacity" begin="0.2s" dur="0.3s" fill="freeze" from="0" to="1" /></rect><rect fill="#f45555" height="10" opacity="0" rx="2" ry="2" width="10" x="38" y="2"><animate attributeName="opacity" begin="0.21s" dur="0.3s" fill="freeze" from="0" to="1" /></rect><rect fill="#f45555" height="10" opacity="0" rx="2" ry="2" width="10" x="38" y="14"><animate attributeName="opacity" begin="0.22s" dur="0.3s" fill="freeze" from="0" to="1" /></rect><rect fill="#fdd8d8" height="10" opacity="0" rx="2" ry="2" width="10" x="38" y="26"><animate attributeName="opacity" begin="0.23s" dur="0.3s" fill="freeze" from="0" to="1" /></rect><rect fill="#f01111" height="10" opacity="0" rx="2" ry="2" width="10" x="38" y="38"><animate attributeName="opacity" begin="0.24s" dur="0.3s" fill="freeze" from="0" to="1" /></rect><rect fill="#fbb3b3" height="10" opacity="0" rx="2" ry="2" width="10" x="38" y="50"><animate attributeName="opacity" begin="0.25s" dur="0.3s" fill="freeze" from="0" to="1" /></rect><rect fill="#cc0e0e" height="10" opacity="0" rx="2" ry="2" width="10" x="38" y="62"><animate attributeName="opacity" begin="0.26s" dur="0.3s" fill="freeze" from="0" to="1" /></rect><rect fill="#f01111" height="10" opacity="0" rx="2" ry="2" width="10" x="38" y="74"><animate attributeName="opacity" begin="0.27s" dur="0.3s" fill="freeze" from="0" to="1" /></rect><rect fill="#f01111" height="10" opacity="0" rx="2" ry="2" width="10" x="50" y="2"><animate attributeName="opacity" begin="0.28s" dur="0.3s" fill="freeze" from="0" to="1" /></rect><rect fill="#f99b9b" height="10" opacity="0" rx="2" ry="2" width="10" x="50" y="14"><animate attributeName="opacity" begin="0.29s" dur="0.3s" fill="freeze" from="0" to="1" /></rect><rect fill="#fbb3b3" height="10" opacity="0" rx="2" ry="2" width="10" x="50" y="26"><animate attributeName="opacity" begin="0.3s" dur="0.3s" fill="freeze" from="0" to="1" /></rect><rect fill="#fbb3b3" height="10" opacity="0" rx="2" ry="2" width="10" x="50" y="38"><animate attributeName="opacity" begin="0.31s" dur="0.3s" fill="freeze" from="0" to="1" /></rect><rect fill="#a80b0b" height="10" opacity="0" rx="2" ry="2" width="10" x="50" y="50"><animate attributeName="opacity" begin="0.32s" dur="0.3s" fill="freeze" from="0" to="1" /></rect><rect fill="#f99b9b" height="10" opacity="0" rx="2" ry="2" width="10" x="50" y="62"><animate attributeName="opacity" begin="0.33s" dur="0.3s" fill="freeze" from="0" to="1" /></rect><rect fill="#f67878" height="10" opacity="0" rx="2" ry="2" width="10" x="50" y="74"><animate attributeName="opacity" begin="0.34s" dur="0.3s" fill="freeze" from="0" to="1" /></rect><rect fill="#a80b0b" height="10" opacity="0" rx="2" ry="2" width="10" x="62" y="2"><animate attributeName="opacity" begin="0.35000000000000003s" dur="0.3s" fill="freeze" from="0" to="1" /></rect><rect fill="#f23333" height="10" opacity="0" rx="2" ry="2" width="10" x="62" y="14"><animate attributeName="opacity" begin="0.36s" dur="0.3s" fill="freeze" from="0" to="1" /></rect><rect fill="#a80b0b" height="10" opacity="0" rx="2" ry="2" width="10" x="62" y="26"><animate attributeName="opacity" begin="0.37s" dur="0.3s" fill="freeze" from="0" to="1" /></rect><rect fill="#fdd8d8" height="10" opacity="0" rx="2" ry="2" width="10" x="62" y="38"><animate attributeName="opacity" begin="0.38s" dur="0.3s" fill="freeze" from="0" to="1" /></rect><rect fill="#fdd8d8" height="10" opacity="0" rx="2" ry="2" width="10" x="62" y="50"><animate attributeName="opacity" begin="0.39s" dur="0.3s" fill="freeze" from="0" to="1" /></rect><rect fill="#cc0e0e" height="10" opacity="0" rx="2" ry="2" width="10" x="62" y="62"><animate attributeName="opacity" begin="0.4s" dur="0.3s" fill="freeze" from="0" to="1" /></rect><rect fill="#cc0e0e" height="10" opacity="0" rx="2" ry="2" width="10" x="62" y="74"><animate attributeName="opacity" begin="0.41000000000000003s" dur="0.3s" fill="freeze" from="0" to="1" /></rect><rect fill="#fbb3b3" height="10" opacity="0" rx="2" ry="2" width="10" x="74" y="2"><animate attributeName="opacity" begin="0.42s" dur="0.3s" fill="freeze" from="0" to="1" /></rect><rect fill="#f45555" height="10" opacity="0" rx="2" ry="2" width="10" x="74" y="14"><animate attributeName="opacity" begin="0.43s" dur="0.3s" fill="freeze" from="0" to="1" /></rect><rect fill="#fbb3b3" height="10" opacity="0" rx="2" ry="2" width="10" x="74" y="26"><animate attributeName="opacity" begin="0.44s" dur="0.3s" fill="freeze" from="0" to="1" /></rect><rect fill="#fbb3b3" height="10" opacity="0" rx="2" ry="2" width="10" x="74" y="38"><animate attributeName="opacity" begin="0.45s" dur="0.3s" fill="freeze" from="0" to="1" /></rect><rect fill="#fdd8d8" height="10" opacity="0" rx="2" ry="2" width="10" x="74" y="50"><animate attributeName="opacity" begin="0.46s" dur="0.3s" fill="freeze" from="0" to="1" /></rect><rect fill="#f67878" height="10" opacity="0" rx="2" ry="2" width="10" x="74" y="62"><animate attributeName="opacity" begin="0.47000000000000003s" dur="0.3s" fill="freeze" from="0" to="1" /></rect><rect fill="#f45555" height="10" opacity="0" rx="2" ry="2" width="10" x="74" y="74"><animate attributeName="opacity" begin="0.48s" dur="0.3s" fill="freeze" from="0" to="1" /></rect><rect fill="#a80b0b" height="10" opacity="0" rx="2" ry="2" width="10" x="86" y="2"><animate attributeName="opacity" begin="0.49s" dur="0.3s" fill="freeze" from="0" to="1" /></rect><rect fill="#fdd8d8" height="10" opacity="0" rx="2" ry="2" width="10" x="86" y="14"><animate attributeName="opacity" begin="0.5s" dur="0.3s" fill="freeze" from="0" to="1" /></rect><rect fill="#f23333" height="10" opacity="0" rx="2" ry="2" width="10" x="86" y="26"><animate attributeName="opacity" begin="0.51s" dur="0.3s" fill="freeze" from="0" to="1" /></rect><rect fill="#f45555" height="10" opacity="0" rx="2" ry="2" width="10" x="86" y="38"><animate attributeName="opacity" begin="0.52s" dur="0.3s" fill="freeze" from="0" to="1" /></rect><rect fill="#f01111" height="10" opacity="0" rx="2" ry="2" width="10" x="86" y="50"><animate attributeName="opacity" begin="0.53s" dur="0.3s" fill="freeze" from="0" to="1" /></rect><rect fill="#f67878" height="10" opacity="0" rx="2" ry="2" width="10" x="86" y="62"><animate attributeName="opacity" begin="0.54s" dur="0.3s" fill="freeze" from="0" to="1" /></rect><rect fill="#a80b0b" height="10" opacity="0" rx="2" ry="2" width="10" x="86" y="74"><animate attributeName="opacity" begin="0.55s" dur="0.3s" fill="freeze" from="0" to="1" /></rect><rect fill="#cc0e0e" height="10" opacity="0" rx="2" ry="2" width="10" x="98" y="2"><animate attributeName="opacity" begin="0.56s" dur="0.3s" fill="freeze" from="0" to="1" /></rect><rect fill="#f45555" height="10" opacity="0" rx="2" ry="2" width="10" x="98" y="14"><animate attributeName="opacity" begin="0.5700000000000001s" dur="0.3s" fill="freeze" from="0" to="1" /></rect><rect fill="#fdd8d8" height="10" opacity="0" rx="2" ry="2" width="10" x="98" y="26"><animate attributeName="opacity" begin="0.58s" dur="0.3s" fill="freeze" from="0" to="1" /></rect><rect fill="#a80b0b" height="10" opacity="0" rx="2" ry="2" width="10" x="98" y="38"><animate attributeName="opacity" begin="0.59s" dur="0.3s" fill="freeze" from="0" to="1" /></rect><rect fill="#fbb3b3" height="10" opacity="0" rx="2" ry="2" width="10" x="98" y="50"><animate attributeName="opacity" begin="0.6s" dur="0.3s" fill="freeze" from="0" to="1" /></rect><rect fill="#cc0e0e" height="10" opacity="0" rx="2" ry="2" width="10" x="98" y="62"><animate attributeName="opacity" begin="0.61s" dur="0.3s" fill="freeze" from="0" to="1" /></rect><rect fill="#f01111" height="10" opacity="0" rx="2" ry="2" width="10" x="98" y="74"><animate attributeName="opacity" begin="0.62s" dur="0.3s" fill="freeze" from="0" to="1" /></rect><rect fill="#f45555" height="10" opacity="0" rx="2" ry="2" width="10" x="110" y="2"><animate attributeName="opacity" begin="0.63s" dur="0.3s" fill="freeze" from="0" to="1" /></rect><rect fill="#f99b9b" height="10" opacity="0" rx="2" ry="2" width="10" x="110" y="14"><animate attributeName="opacity" begin="0.64s" dur="0.3s" fill="freeze" from="0" to="1" /></rect><rect fill="#fbb3b3" height="10" opacity="0" rx="2" ry="2" width="10" x="110" y="26"><animate attributeName="opacity" begin="0.65s" dur="0.3s" fill="freeze" from="0" to="1" /></rect><rect fill="#f67878" height="10" opacity="0" rx="2" ry="2" width="10" x="110" y="38"><animate attributeName="opacity" begin="0.66s" dur="0.3s" fill="freeze" from="0" to="1" /></rect><rect fill="#f45555" height="10" opacity="0" rx="2" ry="2" width="10" x="110" y="50"><animate attributeName="opacity" begin="0.67s" dur="0.3s" fill="freeze" from="0" to="1" /></rect><rect fill="#fbb3b3" height="10" opacity="0" rx="2" ry="2" width="10" x="110" y="62"><animate attributeName="opacity" begin="0.68s" dur="0.3s" fill="freeze" from="0" to="1" /></rect><rect fill="#cc0e0e" height="10" opacity="0" rx="2" ry="2" width="10" x="110" y="74"><animate attributeName="opacity" begin="0.6900000000000001s" dur="0.3s" fill="freeze" from="0" to="1" /></rect><rect fill="#cc0e0e" height="10" opacity="0" rx="2" ry="2" width="10" x="122" y="2"><animate attributeName="opacity" begin="0.7000000000000001s" dur="0.3s" fill="freeze" from="0" to="1" /></rect><rect fill="#a80b0b" height="10" opacity="0" rx="2" ry="2" width="10" x="122" y="14"><animate attributeName="opacity" begin="0.71s" dur="0.3s" fill="freeze" from="0" to="1" /></rect><rect fill="#fbb3b3" height="10" opacity="0" rx="2" ry="2" width="10" x="122" y="26"><animate attributeName="opacity" begin="0.72s" dur="0.3s" fill="freeze" from="0" to="1" /></rect><rect fill="#fbb3b3" height="10" opacity="0" rx="2" ry="2" width="10" x="122" y="38"><animate attributeName="opacity" begin="0.73s" dur="0.3s" fill="freeze" from="0" to="1" /></rect><rect fill="#f67878" height="10" opacity="0" rx="2" ry="2" width="10" x="122" y="50"><animate attributeName="opacity" begin="0.74s" dur="0.3s" fill="freeze" from="0" to="1" /></rect><rect fill="#cc0e0e" height="10" opacity="0" rx="2" ry="2" width="10" x="122" y="62"><animate attributeName="opacity" begin="0.75s" dur="0.3s" fill="freeze" from="0" to="1" /></rect><rect fill="#cc0e0e" height="10" opacity="0" rx="2" ry="2" width="10" x="122" y="74"><animate attributeName="opacity" begin="0.76s" dur="0.3s" fill="freeze" from="0" to="1" /></rect><rect fill="#f67878" height="10" opacity="0" rx="2" ry="2" width="10" x="134" y="2"><animate attributeName="opacity" begin="0.77s" dur="0.3s" fill="freeze" from="0" to="1" /></rect><rect fill="#fdd8d8" height="10" opacity="0" rx="2" ry="2" width="10" x="134" y="14"><animate attributeName="opacity" begin="0.78s" dur="0.3s" fill="freeze" from="0" to="1" /></rect><rect fill="#fbb3b3" height="10" opacity="0" rx="2" ry="2" width="10" x="134" y="26"><animate attributeName="opacity" begin="0.79s" dur="0.3s" fill="freeze" from="0" to="1" /></rect><rect fill="#fdd8d8" height="10" opacity="0" rx="2" ry="2" width="10" x="134" y="38"><animate attributeName="opacity" begin="0.8s" dur="0.3s" fill="freeze" from="0" to="1" /></rect><rect fill="#a80b0b" height="10" opacity="0" rx="2" ry="2" width="10" x="134" y="50"><animate attributeName="opacity" begin="0.81s" dur="0.3s" fill="freeze" from="0" to="1" /></rect><rect fill="#fbb3b3" height="10" opacity="0" rx="2" ry="2" width="10" x="134" y="62"><animate attributeName="opacity" begin="0.8200000000000001s" dur="0.3s" fill="freeze" from="0" to="1" /></rect><rect fill="#f99b9b" height="10" opacity="0" rx="2" ry="2" width="10" x="134" y="74"><animate attributeName="opacity" begin="0.8300000000000001s" dur="0.3s" fill="freeze" from="0" to="1" /></rect><rect fill="#f23333" height="10" opacity="0" rx="2" ry="2" width="10" x="146" y="2"><animate attributeName="opacity" begin="0.84s" dur="0.3s" fill="freeze" from="0" to="1" /></rect><rect fill="#f99b9b" height="10" opacity="0" rx="2" ry="2" width="10" x="146" y="14"><animate attributeName="opacity" begin="0.85s" dur="0.3s" fill="freeze" from="0" to="1" /></rect><rect fill="#f67878" height="10" opacity="0" rx="2" ry="2" width="10" x="146" y="26"><animate attributeName="opacity" begin="0.86s" dur="0.3s" fill="freeze" from="0" to="1" /></rect><rect fill="#f01111" height="10" opacity="0" rx="2" ry="2" width="10" x="146" y="38"><animate attributeName="opacity" begin="0.87s" dur="0.3s" fill="freeze" from="0" to="1" /></rect><rect fill="#f23333" height="10" opacity="0" rx="2" ry="2" width="10" x="146" y="50"><animate attributeName="opacity" begin="0.88s" dur="0.3s" fill="freeze" from="0" to="1" /></rect><rect fill="#f01111" height="10" opacity="0" rx="2" ry="2" width="10" x="146" y="62"><animate attributeName="opacity" begin="0.89s" dur="0.3s" fill="freeze" from="0" to="1" /></rect><rect fill="#f45555" height="10" opacity="0" rx="2" ry="2" width="10" x="146" y="74"><animate attributeName="opacity" begin="0.9s" dur="0.3s" fill="freeze" from="0" to="1" /></rect><rect fill="#cc0e0e" height="10" opacity="0" rx="2" ry="2" width="10" x="158" y="2"><animate attributeName="opacity" begin="0.91s" dur="0.3s" fill="freeze" from="0" to="1" /></rect><rect fill="#f99b9b" height="10" opacity="0" rx="2" ry="2" width="10" x="158" y="14"><animate attributeName="opacity" begin="0.92s" dur="0.3s" fill="freeze" from="0" to="1" /></rect><rect fill="#fdd8d8" height="10" opacity="0" rx="2" ry="2" width="10" x="158" y="26"><animate attributeName="opacity" begin="0.93s" dur="0.3s" fill="freeze" from="0" to="1" /></rect><rect fill="#fdd8d8" height="10" opacity="0" rx="2" ry="2" width="10" x="158" y="38"><animate attributeName="opacity" begin="0.9400000000000001s" dur="0.3s" fill="freeze" from="0" to="1" /></rect><rect fill="#f99b9b" height="10" opacity="0" rx="2" ry="2" width="10" x="158" y="50"><animate attributeName="opacity" begin="0.9500000000000001s" dur="0.3s" fill="freeze" from="0" to="1" /></rect><rect fill="#fdd8d8" height="10" opacity="0" rx="2" ry="2" width="10" x="158" y="62"><animate attributeName="opacity" begin="0.96s" dur="0.3s" fill="freeze" from="0" to="1" /></rect><rect fill="#cc0e0e" height="10" opacity="0" rx="2" ry="2" width="10" x="158" y="74"><animate attributeName="opacity" begin="0.97s" dur="0.3s" fill="freeze" from="0" to="1" /></rect><rect fill="#fdd8d8" height="10" opacity="0" rx="2" ry="2" width="10" x="170" y="2"><animate attributeName="opacity" begin="0.98s" dur="0.3s" fill="freeze" from="0" to="1" /></rect><rect fill="#fdd8d8" height="10" opacity="0" rx="2" ry="2" width="10" x="170" y="14"><animate attributeName="opacity" begin="0.99s" dur="0.3s" fill="freeze" from="0" to="1" /></rect><rect fill="#f67878" height="10" opacity="0" rx="2" ry="2" width="10" x="170" y="26"><animate attributeName="opacity" begin="1.0s" dur="0.3s" fill="freeze" from="0" to="1" /></rect><rect fill="#cc0e0e" height="10" opacity="0" rx="2" ry="2" width="10" x="170" y="38"><animate attributeName="opacity" begin="1.01s" dur="0.3s" fill="freeze" from="0" to="1" /></rect><rect fill="#fbb3b3" height="10" opacity="0" rx="2" ry="2" width="10" x="170" y="50"><animate attributeName="opacity" begin="1.02s" dur="0.3s" fill="freeze" from="0" to="1" /></rect><rect fill="#fbb3b3" height="10" opacity="0" rx="2" ry="2" width="10" x="170" y="62"><animate attributeName="opacity" begin="1.03s" dur="0.3s" fill="freeze" from="0" to="1" /></rect><rect fill="#f23333" height="10" opacity="0" rx="2" ry="2" width="10" x="170" y="74"><animate attributeName="opacity" begin="1.04s" dur="0.3s" fill="freeze" from="0" to="1" /></rect><rect fill="#f01111" height="10" opacity="0" rx="2" ry="2" width="10" x="182" y="2"><animate attributeName="opacity" begin="1.05s" dur="0.3s" fill="freeze" from="0" to="1" /></rect><rect fill="#cc0e0e" height="10" opacity="0" rx="2" ry="2" width="10" x="182" y="14"><animate attributeName="opacity" begin="1.06s" dur="0.3s" fill="freeze" from="0" to="1" /></rect><rect fill="#fbb3b3" height="10" opacity="0" rx="2" ry="2" width="10" x="182" y="26"><animate attributeName="opacity" begin="1.07s" dur="0.3s" fill="freeze" from="0" to="1" /></rect><rect fill="#fbb3b3" height="10" opacity="0" rx="2" ry="2" width="10" x="182" y="38"><animate attributeName="opacity" begin="1.08s" dur="0.3s" fill="freeze" from="0" to="1" /></rect><rect fill="#fbb3b3" height="10" opacity="0" rx="2" ry="2" width="10" x="182" y="50"><animate attributeName="opacity" begin="1.09s" dur="0.3s" fill="freeze" from="0" to="1" /></rect><rect fill="#f67878" height="10" opacity="0" rx="2" ry="2" width="10" x="182" y="62"><animate attributeName="opacity" begin="1.1s" dur="0.3s" fill="freeze" from="0" to="1" /></rect><rect fill="#f23333" height="10" opacity="0" rx="2" ry="2" width="10" x="182" y="74"><animate attributeName="opacity" begin="1.11s" dur="0.3s" fill="freeze" from="0" to="1" /></rect><rect fill="#cc0e0e" height="10" opacity="0" rx="2" ry="2" width="10" x="194" y="2"><animate attributeName="opacity" begin="1.12s" dur="0.3s" fill="freeze" from="0" to="1" /></rect><rect fill="#f67878" height="10" opacity="0" rx="2" ry="2" width="10" x="194" y="14"><animate attributeName="opacity" begin="1.1300000000000001s" dur="0.3s" fill="freeze" from="0" to="1" /></rect><rect fill="#f01111" height="10" opacity="0" rx="2" ry="2" width="10" x="194" y="26"><animate attributeName="opacity" begin="1.1400000000000001s" dur="0.3s" fill="freeze" from="0" to="1" /></rect><rect fill="#f99b9b" height="10" opacity="0" rx="2" ry="2" width="10" x="194" y="38"><animate attributeName="opacity" begin="1.1500000000000001s" dur="0.3s" fill="freeze" from="0" to="1" /></rect><rect fill="#fbb3b3" height="10" opacity="0" rx="2" ry="2" width="10" x="194" y="50"><animate attributeName="opacity" begin="1.16s" dur="0.3s" fill="freeze" from="0" to="1" /></rect><rect fill="#f67878" height="10" opacity="0" rx="2" ry="2" width="10" x="194" y="62"><animate attributeName="opacity" begin="1.17s" dur="0.3s" fill="freeze" from="0" to="1" /></rect><rect fill="#fbb3b3" height="10" opacity="0" rx="2" ry="2" width="10" x="194" y="74"><animate attributeName="opacity" begin="1.18s" dur="0.3s" fill="freeze" from="0" to="1" /></rect><rect fill="#fdd8d8" height="10" opacity="0" rx="2" ry="2" width="10" x="206" y="2"><animate attributeName="opacity" begin="1.19s" dur="0.3s" fill="freeze" from="0" to="1" /></rect><rect fill="#a80b0b" height="10" opacity="0" rx="2" ry="2" width="10" x="206" y="14"><animate attributeName="opacity" begin="1.2s" dur="0.3s" fill="freeze" from="0" to="1" /></rect><rect fill="#fdd8d8" height="10" opacity="0" rx="2" ry="2" width="10" x="206" y="26"><animate attributeName="opacity" begin="1.21s" dur="0.3s" fill="freeze" from="0" to="1" /></rect><rect fill="#f23333" height="10" opacity="0" rx="2" ry="2" width="10" x="206" y="38"><animate attributeName="opacity" begin="1.22s" dur="0.3s" fill="freeze" from="0" to="1" /></rect><rect fill="#f23333" height="10" opacity="0" rx="2" ry="2" width="10" x="206" y="50"><animate attributeName="opacity" begin="1.23s" dur="0.3s" fill="freeze" from="0" to="1" /></rect><rect fill="#a80b0b" height="10" opacity="0" rx="2" ry="2" width="10" x="206" y="62"><animate attributeName="opacity" begin="1.24s" dur="0.3s" fill="freeze" from="0" to="1" /></rect><rect fill="#f99b9b" height="10" opacity="0" rx="2" ry="2" width="10" x="206" y="74"><animate attributeName="opacity" begin="1.25s" dur="0.3s" fill="freeze" from="0" to="1" /></rect><rect fill="#f67878" height="10" opacity="0" rx="2" ry="2" width="10" x="218" y="2"><animate attributeName="opacity" begin="1.26s" dur="0.3s" fill="freeze" from="0" to="1" /></rect><rect fill="#fdd8d8" height="10" opacity="0" rx="2" ry="2" width="10" x="218" y="14"><animate attributeName="opacity" begin="1.27s" dur="0.3s" fill="freeze" from="0" to="1" /></rect><rect fill="#fdd8d8" height="10" opacity="0" rx="2" ry="2" width="10" x="218" y="26"><animate attributeName="opacity" begin="1.28s" dur="0.3s" fill="freeze" from="0" to="1" /></rect><rect fill="#f67878" height="10" opacity="0" rx="2" ry="2" width="10" x="218" y="38"><animate attributeName="opacity" begin="1.29s" dur="0.3s" fill="freeze" from="0" to="1" /></rect><rect fill="#f99b9b" height="10" opacity="0" rx="2" ry="2" width="10" x="218" y="50"><animate attributeName="opacity" begin="1.3s" dur="0.3s" fill="freeze" from="0" to="1" /></rect><rect fill="#f23333" height="10" opacity="0" rx="2" ry="2" width="10" x="218" y="62"><animate attributeName="opacity" begin="1.31s" dur="0.3s" fill="freeze" from="0" to="1" /></rect><rect fill="#fbb3b3" height="10" opacity="0" rx="2" ry="2" width="10" x="218" y="74"><animate attributeName="opacity" begin="1.32s" dur="0.3s" fill="freeze" from="0" to="1" /></rect><rect fill="#f01111" height="10" opacity="0" rx="2" ry="2" width="10" x="230" y="2"><animate attributeName="opacity" begin="1.33s" dur="0.3s" fill="freeze" from="0" to="1" /></rect><rect fill="#fbb3b3" height="10" opacity="0" rx="2" ry="2" width="10" x="230" y="14"><animate attributeName="opacity" begin="1.34s" dur="0.3s" fill="freeze" from="0" to="1" /></rect><rect fill="#f45555" height="10" opacity="0" rx="2" ry="2" width="10" x="230" y="26"><animate attributeName="opacity" begin="1.35s" dur="0.3s" fill="freeze" from="0" to="1" /></rect><rect fill="#f45555" height="10" opacity="0" rx="2" ry="2" width="10" x="230" y="38"><animate attributeName="opacity" begin="1.36s" dur="0.3s" fill="freeze" from="0" to="1" /></rect><rect fill="#f23333" height="10" opacity="0" rx="2" ry="2" width="10" x="230" y="50"><animate attributeName="opacity" begin="1.37s" dur="0.3s" fill="freeze" from="0" to="1" /></rect><rect fill="#f67878" height="10" opacity="0" rx="2" ry="2" width="10" x="230" y="62"><animate attributeName="opacity" begin="1.3800000000000001s" dur="0.3s" fill="freeze" from="0" to="1" /></rect><rect fill="#f99b9b" height="10" opacity="0" rx="2" ry="2" width="10" x="230" y="74"><animate attributeName="opacity" begin="1.3900000000000001s" dur="0.3s" fill="freeze" from="0" to="1" /></rect>
    <circle cx="122.2" cy="41.7" fill="#ffffff99" r="39.1" />
    <path fill-rule="evenodd" clip-rule="evenodd" transform="scale(0.8, 0.8) translate(104, 3)"
        d="M48.854 0C21.839 0 0 22 0 49.217c0 21.756 13.993 40.172 33.405 46.69 2.427.49 3.316-1.059 3.316-2.362 0-1.141-.08-5.052-.08-9.127-13.59 2.934-16.42-5.867-16.42-5.867-2.184-5.704-5.42-7.17-5.42-7.17-4.448-3.015.324-3.015.324-3.015 4.934.326 7.523 5.052 7.523 5.052 4.367 7.496 11.404 5.378 14.235 4.074.404-3.178 1.699-5.378 3.074-6.6-10.839-1.141-22.243-5.378-22.243-24.283 0-5.378 1.94-9.778 5.014-13.2-.485-1.222-2.184-6.275.486-13.038 0 0 4.125-1.304 13.426 5.052a46.97 46.97 0 0 1 12.214-1.63c4.125 0 8.33.571 12.213 1.63 9.302-6.356 13.427-5.052 13.427-5.052 2.67 6.763.97 11.816.485 13.038 3.155 3.422 5.015 7.822 5.015 13.2 0 18.905-11.404 23.06-22.324 24.283 1.78 1.548 3.316 4.481 3.316 9.126 0 6.6-.08 11.897-.08 13.526 0 1.304.89 2.853 3.316 2.364 19.412-6.52 33.405-24.935 33.405-46.691C97.707 22 75.788 0 48.854 0z"
        fill="#00000099" />
    </svg>